<?xml version="1.0" encoding="UTF-8"?>
<svg id="_レイヤー_1" data-name="レイヤー 1" xmlns="http://www.w3.org/2000/svg" xmlns:xlink="http://www.w3.org/1999/xlink" viewBox="0 0 960 720">
  <defs>
    <style>
      .cls-1 {
        fill: #fbb03b;
        font-family: HGMinchoE, HGMinchoE;
        font-size: 55px;
      }

      .cls-2, .cls-3, .cls-4 {
        stroke-width: 0px;
      }

      .cls-2, .cls-5, .cls-6 {
        fill: #ff6906;
      }

      .cls-7 {
        letter-spacing: .06em;
      }

      .cls-8 {
        letter-spacing: .07em;
      }

      .cls-9 {
        letter-spacing: .05em;
      }

      .cls-10 {
        letter-spacing: .05em;
      }

      .cls-11 {
        letter-spacing: .04em;
      }

      .cls-12 {
        letter-spacing: .03em;
      }

      .cls-13 {
        letter-spacing: 0em;
      }

      .cls-14 {
        letter-spacing: .03em;
      }

      .cls-15 {
        stroke: #000;
      }

      .cls-15, .cls-16, .cls-17, .cls-18, .cls-19, .cls-20 {
        stroke-miterlimit: 10;
      }

      .cls-16 {
        fill: #57a2d9;
      }

      .cls-16, .cls-17, .cls-18 {
        stroke: #ff6906;
      }

      .cls-21 {
        letter-spacing: .08em;
      }

      .cls-22 {
        letter-spacing: .02em;
      }

      .cls-23 {
        letter-spacing: .04em;
      }

      .cls-24 {
        clip-path: url(#clippath-2);
      }

      .cls-25 {
        letter-spacing: .05em;
      }

      .cls-26 {
        letter-spacing: .04em;
      }

      .cls-27 {
        letter-spacing: .03em;
      }

      .cls-17 {
        stroke-width: 10px;
      }

      .cls-17, .cls-4, .cls-18, .cls-19, .cls-20 {
        fill: none;
      }

      .cls-28 {
        clip-path: url(#clippath-1);
      }

      .cls-29 {
        letter-spacing: .04em;
      }

      .cls-30 {
        letter-spacing: .04em;
      }

      .cls-31 {
        letter-spacing: .04em;
      }

      .cls-32 {
        letter-spacing: .09em;
      }

      .cls-33 {
        letter-spacing: .08em;
      }

      .cls-34 {
        letter-spacing: .04em;
      }

      .cls-35 {
        letter-spacing: .02em;
      }

      .cls-36 {
        letter-spacing: .05em;
      }

      .cls-37 {
        letter-spacing: .05em;
      }

      .cls-38 {
        letter-spacing: .02em;
      }

      .cls-39 {
        letter-spacing: -.04em;
      }

      .cls-5 {
        font-size: 44px;
      }

      .cls-5, .cls-6 {
        font-family: MicrosoftSansSerif, 'Microsoft Sans Serif';
      }

      .cls-19 {
        stroke: #469b8f;
        stroke-width: 2px;
      }

      .cls-40 {
        letter-spacing: .02em;
      }

      .cls-41 {
        clip-path: url(#clippath);
      }

      .cls-42 {
        letter-spacing: .04em;
      }

      .cls-43 {
        letter-spacing: .05em;
      }

      .cls-44 {
        letter-spacing: -.02em;
      }

      .cls-45 {
        letter-spacing: 0em;
      }

      .cls-46 {
        clip-path: url(#clippath-3);
      }

      .cls-47 {
        letter-spacing: .05em;
      }

      .cls-48 {
        letter-spacing: .07em;
      }

      .cls-49 {
        letter-spacing: -.03em;
      }

      .cls-20 {
        stroke: #fbb03b;
      }

      .cls-6 {
        font-size: 20px;
      }

      .cls-50 {
        letter-spacing: .07em;
      }

      .cls-51 {
        letter-spacing: .04em;
      }

      .cls-52 {
        letter-spacing: 0em;
      }

      .cls-53 {
        letter-spacing: .09em;
      }

      .cls-54 {
        letter-spacing: .03em;
      }

      .cls-55 {
        letter-spacing: .01em;
      }

      .cls-56 {
        letter-spacing: 0em;
      }

      .cls-57 {
        letter-spacing: .05em;
      }
    </style>
    <clipPath id="clippath">
      <rect class="cls-4" x="41.31" y="109.49" width="305.82" height="112.47"/>
    </clipPath>
    <clipPath id="clippath-1">
      <rect class="cls-4" x="615.36" y="109.49" width="305.82" height="112.47"/>
    </clipPath>
    <clipPath id="clippath-2">
      <rect class="cls-4" x="80.43" y="389.5" width="343.95" height="243.45"/>
    </clipPath>
    <clipPath id="clippath-3">
      <rect class="cls-4" x="531.94" y="389.5" width="343.95" height="243.45"/>
    </clipPath>
  </defs>
  <rect class="cls-3" width="960" height="720"/>
  <polygon class="cls-17" points="480 280.57 230.14 578.6 729.86 578.6 480 280.57"/>
  <g>
    <path class="cls-2" d="M94.8,174.25c-1.5.83-3.13,1.55-4.92,2.16l-1.34,2.16c-.89,1.65-2.24,1.75-4.03.31l-7.16-7.73c6.86-1.44,12.67-2.78,17.45-4.02v-15.15h-15.66l-1.34-2.16h17v-20.09l13.87.93c2.08.62,2.24,1.75.45,3.4l-2.68,1.55v14.22h1.79l5.82-6.49,7.61,6.18c1.79,1.24,1.64,2.06-.45,2.47h-14.77v12.36c5.07-1.24,9.99-2.57,14.77-4.02,3.87-.82,3.58,0-.89,2.47-.89.62-2.09,1.34-3.58,2.16h53.24l5.82-6.18,11.19,5.87c1.49,1.24,1.19,2.06-.89,2.47h-31.32v11.44h11.19l6.26-6.18,8.95,5.87c1.79,1.24,1.49,2.06-.89,2.47h-25.5v12.36c8.65.42,19.69.31,33.11-.31-2.39,1.44-4.18,2.78-5.37,4.02-1.2,1.03-2.09,2.57-2.68,4.64-4.47,0-9.84-.11-16.11-.31-10.74-.42-18.65-1.85-23.71-4.33-3.58-1.65-7.16-4.64-10.74-8.96-5.08,5.77-11.19,10.3-18.34,13.6-.89.41-1.94.93-3.13,1.55-3.29,1.24-3.29.41,0-2.47,8.65-6.8,14.32-16.89,17-30.29l12.53,3.09c2.38,1.44,2.53,2.68.45,3.71l-2.24.62c-.89,1.85-1.64,3.3-2.24,4.33l-2.68,3.71c2.68,2.89,6.86,4.84,12.53,5.87v-24.42h-25.5l-1.79-1.85c-3.29,1.44-6.42,2.78-9.4,4.02v26.27c0,3.09-3.58,5.15-10.74,6.18-2.68,1.03-4.33.31-4.92-2.16-.3-1.65-1.2-2.68-2.68-3.09l-7.16-1.85c-2.09-.82-1.94-1.34.45-1.55h10.74c1.79,0,2.68-.62,2.68-1.85v-17ZM161.92,134.06l4.47-4.95,10.29,6.8c1.49,1.03,1.34,2.37-.45,4.02l-.89.62v17.31c0,1.44-2.99,2.37-8.95,2.78-1.79.21-2.68-.51-2.68-2.16v-2.47h-27.29v3.09c0,1.03-.75,1.75-2.24,2.16-1.2.21-3.29.42-6.26.62-2.09,0-3.13-.62-3.13-1.85v-29.67l12.53,3.71h24.61ZM136.41,136.23v7.73h27.29v-7.73h-27.29ZM136.41,146.12v7.73h27.29v-7.73h-27.29Z"/>
    <path class="cls-2" d="M252.61,140.24l8.05,5.56c1.49,1.24,1.34,2.06-.45,2.47h-44.3l-1.34-2.16h30.87l7.16-5.87ZM219.95,138.08v-2.16h21.03l6.26-5.25,8.05,5.25c1.49,1.03,1.19,1.75-.89,2.16h-34.45ZM219.95,158.17v-2.16h21.03l6.26-5.56,7.61,5.25c1.79,1.24,1.64,2.06-.45,2.47h-34.45ZM219.95,168.06v-2.16h22.37l5.82-5.25,7.16,5.25c1.19,1.03.89,1.75-.89,2.16h-34.45ZM230.69,194.65v4.64c0,1.24-2.39,1.96-7.16,2.16-2.39.2-3.58-.31-3.58-1.55v-28.13l10.74,4.02h11.19l2.68-4.33,10.29,5.87c2.08,1.24,1.79,2.27-.89,3.09l-1.34.31v15.46c0,1.03-.6,1.65-1.79,1.85-2.09.41-4.33.72-6.71.93-1.5.2-2.24-.21-2.24-1.24v-3.09h-11.19ZM230.69,192.48h11.19v-14.53h-11.19v14.53ZM275.43,158.17c0,3.71-.3,8.24-.89,13.6-.3,4.54-.75,7.63-1.34,9.27-1.79,6.6-6.71,12.47-14.77,17.62-1.79,1.24-3.88,2.37-6.26,3.4-1.2-.21-.75-1.13,1.34-2.78,4.47-4.54,7.45-9.79,8.95-15.76,1.19-5.36,1.79-12.47,1.79-21.33v-24.73l11.19,3.4c4.77-1.03,9.54-2.47,14.32-4.33,5.96-2.27,10.44-4.22,13.42-5.87l10.74,6.49c2.08,1.44,1.79,2.37-.89,2.78h-2.68l-9.84.93c-7.46.83-15.96,1.55-25.5,2.16v12.98h26.85l8.05-6.8,8.95,6.18c1.79,1.44,1.49,2.37-.89,2.78h-17.45v12.36c5.37,1.65,9.1,3.09,11.19,4.33,3.87,2.27,5.96,4.64,6.26,7.11.29,1.85-.6,3.09-2.68,3.71-2.68.83-4.92.42-6.71-1.24-3.58-3.29-6.26-5.25-8.05-5.87v19.78c0,.82-.45,1.34-1.34,1.55-1.5.62-3.58,1.03-6.26,1.24-2.09.2-3.13-.42-3.13-1.85v-26.58c-3.88-1.85-7.46-3.19-10.74-4.02l-1.34-.31c-2.68-.82-2.39-1.34.89-1.55,3.87.42,7.61,1.03,11.19,1.85v-10.51h-14.32Z"/>
  </g>
  <g>
    <path class="cls-2" d="M655.55,166.81c-2.99.21-4.92-.72-5.82-2.78-1.5-4.12-3.13-6.9-4.92-8.35-4.47-2.06-4.33-2.98.45-2.78,7.16.42,12.08,2.27,14.76,5.56,1.19,1.44,1.49,3.09.89,4.95-.89,2.06-2.68,3.2-5.37,3.4ZM665.84,174.23l-4.47,9.58c-1.2,2.68-1.5,4.95-.89,6.8.89,2.68,1.49,4.74,1.79,6.18.59,2.47-.15,4.53-2.24,6.18-2.09,1.65-4.63,2.06-7.61,1.24-3.29-.83-4.63-2.89-4.03-6.18.89-3.71,1.34-5.77,1.34-6.18.29-2.47-.15-4.02-1.34-4.64-.6-.82-1.94-1.55-4.03-2.16-3.88-1.44-3.43-2.16,1.34-2.16l5.82.31,21.03-29.98c1.79-1.24,2.53-.82,2.24,1.24l-8.05,17.62h24.16c.59-4.33.89-11.54.89-21.64h-17l-1.79-2.16h18.79c-.3-5.36-.6-10.82-.89-16.38l15.66,1.24c2.08.62,2.24,1.85.45,3.71l-2.68,1.55v9.89h12.08l4.47-4.95,11.63,7.73c1.79,1.24,1.49,2.37-.89,3.4l-1.79.62v17h.89l7.16-7.42,9.4,6.8c1.79,1.44,1.49,2.37-.89,2.78h-41.61c2.08,2.89,4.03,5.05,5.82,6.49,3.28,2.68,7.16,5.05,11.63,7.11,6.56,2.89,15.51,5.36,26.85,7.42-3.58,1.24-6.12,2.37-7.61,3.4-1.2,1.03-2.98,2.78-5.37,5.25-9.25-3.09-16.71-7.11-22.37-12.06-4.47-3.91-8.21-9.07-11.19-15.46-1.2,4.54-3.43,8.55-6.71,12.06-4.47,4.95-11.79,9.27-21.92,12.98-2.39.82-4.63,1.55-6.71,2.16-5.97,1.24-6.42.62-1.34-1.85,4.17-2.06,8.05-4.54,11.63-7.42,6.26-5.15,10.58-11.85,12.98-20.09h-24.61ZM662.26,149.5c-2.98,0-5.08-1.44-6.26-4.33-1.2-3.09-3.13-5.36-5.82-6.8-3.58-1.65-4.33-2.57-2.24-2.78,5.37-.2,9.99.42,13.87,1.85,4.77,1.65,7.16,4.02,7.16,7.11,0,3.3-2.24,4.95-6.71,4.95ZM704.32,150.43c.29,6.18,0,13.4-.89,21.64h13.87v-21.64h-12.98Z"/>
    <path class="cls-2" d="M799.94,148.58l6.71-6.18,9.4,5.87c1.79,1.24,1.49,2.06-.89,2.47h-38.03l-1.79-2.16h24.61ZM778.46,140.85v-2.16h19.24l6.26-5.56,9.4,5.25c1.79,1.24,1.49,2.06-.89,2.47h-34ZM778.46,158.47h19.69l5.82-5.25,7.61,5.25c1.49,1.03,1.19,1.75-.89,2.16h-32.22v-2.16ZM778.46,170.21v-2.16h19.24l5.82-4.95,8.95,4.95c1.49,1.03,1.19,1.75-.89,2.16h-33.11ZM789.2,198.03v3.4c.29.82-.75,1.44-3.13,1.85-1.79.41-3.43.62-4.92.62s-2.39-.52-2.68-1.55v-28.44l12.98,3.4h8.05l3.58-3.4,9.4,6.8c1.19.83,1.04,1.65-.45,2.47l-1.34.62v15.46c0,1.44-3.13,2.16-9.4,2.16-.89,0-1.34-.31-1.34-.93v-2.47h-10.74ZM789.2,179.49v16.38h10.74v-16.38h-10.74ZM828.57,190.31c-2.09.62-4.18,1.13-6.26,1.55l-1.34,1.85c-.6,1.24-1.94,1.24-4.03,0l-5.37-7.11c5.66-.41,11.33-.82,17-1.24v-5.87h-15.21l-1.34-2.16h16.55v-4.33c-9.84,1.44-15.21,1.96-16.11,1.55-2.09-.41-1.5-1.03,1.79-1.85,1.49-.41,2.38-.62,2.68-.62,6.56-1.65,14.16-4.33,22.82-8.04l7.16,4.33c1.49,1.03,1.34,1.75-.45,2.16l-.89-.31c-.6.21-3.29.62-8.05,1.24v5.87h12.53c-.3-4.74-.45-9.07-.45-12.98l11.19.62c2.38.21,2.68.93.89,2.16l3.13.31c3.58.42,5.96,1.34,7.16,2.78,1.49,2.06.74,3.61-2.24,4.64-2.39.62-4.18-.1-5.37-2.16-1.5-2.68-3.13-4.02-4.92-4.02,0,4.12.15,7.01.45,8.65h9.84l4.92-4.95,8.05,4.95c1.79,1.24,1.64,2.06-.45,2.47l-21.92-.31c.59,3.09,1.19,5.36,1.79,6.8.59-.41,2.68-2.47,6.26-6.18l8.5,4.64c1.79,1.03,1.49,1.96-.89,2.78l-2.24.62c-1.5,1.03-4.03,2.47-7.61,4.33.59.62,1.94,1.44,4.03,2.47,1.79,1.03,3.13,1.24,4.03.62s2.53-2.98,4.92-7.11c1.19-1.24,1.94-1.44,2.24-.62.29.83.29,1.75,0,2.78-.3,1.85-.45,4.12-.45,6.8.29.62.89,1.44,1.79,2.47.89,1.03,1.19,1.75.89,2.16-.3,1.85-2.09,2.68-5.37,2.47-1.79,0-4.03-.42-6.71-1.24-5.67-1.44-10.29-3.82-13.87-7.11l-5.37,1.85c-5.37,1.85-10.29,3.19-14.77,4.02-4.47,2.06-7.91,2.98-10.29,2.78-.6-.21-1.05-.83-1.34-1.85-.3-1.03-.45-1.65-.45-1.85-.3-.42-1.05-.83-2.24-1.24-.89-.21-1.79-.42-2.68-.62l-3.58-.93c-3.29-1.03-3.43-1.65-.45-1.85,5.37.21,8.65.31,9.84.31,1.49,0,2.24-.41,2.24-1.24v-5.25ZM865.71,161.25l6.71-5.56,8.95,5.25c1.79,1.24,1.64,2.06-.45,2.47h-66.67l-1.79-2.16h27.74v-6.49h-19.24l-1.34-2.16h20.58v-5.87h-21.48l-1.79-2.16h17c-.89-.62-1.5-1.13-1.79-1.55-1.2-3.09-2.39-5.36-3.58-6.8-.6-.82-1.64-1.55-3.13-2.16-2.39-1.44-1.05-1.85,4.03-1.24,3.87.62,6.56,1.24,8.05,1.85,2.98,1.03,4.92,2.47,5.82,4.33,1.19,2.27.29,4.12-2.68,5.56h9.84c.89-1.44,1.79-3.4,2.68-5.87.89-2.27,1.79-4.74,2.68-7.42l11.63,4.02c2.38,1.03,1.94,1.85-1.34,2.47l-2.24.31c-3.29,2.47-6.42,4.64-9.4,6.49h9.4l6.26-5.25,8.05,5.25c1.49,1.03,1.19,1.75-.89,2.16h-25.5v5.87h9.4l5.37-4.64,7.61,4.64c1.49,1.03,1.34,1.75-.45,2.16h-21.92v6.49h13.87ZM837.52,179.49v4.95c5.37-.41,9.84-.93,13.42-1.55-.3-1.03-.45-2.16-.45-3.4h-12.98ZM837.52,200.51c2.68-.62,5.66-1.85,8.95-3.71,2.98-1.44,5.66-3.09,8.05-4.95-1.2-1.85-2.24-4.33-3.13-7.42-4.18,1.24-8.8,2.37-13.87,3.4v12.67Z"/>
  </g>
  <rect class="cls-18" x="19.73" y="14.8" width="920.53" height="690.4"/>
  <rect class="cls-18" x="36.14" y="46.36" width="887.71" height="627.28"/>
  <g>
    <g id="_リピートミラー_" data-name="&amp;lt;リピートミラー&amp;gt;">
      <g class="cls-41">
        <g>
          <rect class="cls-19" x="42.31" y="110.49" width="303.82" height="4.74" rx="2.37" ry="2.37"/>
          <rect class="cls-19" x="42.31" y="119.64" width="303.82" height="4.74" rx="2.37" ry="2.37"/>
        </g>
        <g>
          <rect class="cls-19" x="42.31" y="207.06" width="303.82" height="4.74" rx="2.37" ry="2.37"/>
          <rect class="cls-19" x="42.31" y="216.21" width="303.82" height="4.74" rx="2.37" ry="2.37"/>
        </g>
      </g>
    </g>
    <g id="_リピートミラー_-2" data-name="&amp;lt;リピートミラー&amp;gt;">
      <g class="cls-28">
        <g>
          <rect class="cls-19" x="616.36" y="110.49" width="303.82" height="4.74" rx="2.37" ry="2.37" transform="translate(1536.53 225.72) rotate(180)"/>
          <rect class="cls-19" x="616.36" y="119.64" width="303.82" height="4.74" rx="2.37" ry="2.37" transform="translate(1536.53 244.02) rotate(-180)"/>
        </g>
        <g>
          <rect class="cls-19" x="616.36" y="207.06" width="303.82" height="4.74" rx="2.37" ry="2.37" transform="translate(1536.53 418.87) rotate(-180)"/>
          <rect class="cls-19" x="616.36" y="216.21" width="303.82" height="4.74" rx="2.37" ry="2.37" transform="translate(1536.53 437.17) rotate(-180)"/>
        </g>
      </g>
    </g>
  </g>
  <polygon class="cls-16" points="349.97 109.49 349.97 372.36 433.1 437.33 526.9 437.33 610.03 372.36 610.03 109.49 349.97 109.49"/>
  <g>
    <g id="_リピートミラー_-3" data-name="&amp;lt;リピートミラー&amp;gt;">
      <g class="cls-24">
        <polygon class="cls-16" points="423.88 632.45 80.93 632.45 80.93 390 276.09 390 423.88 500.52 423.88 632.45"/>
      </g>
    </g>
    <g id="_リピートミラー_-4" data-name="&amp;lt;リピートミラー&amp;gt;">
      <g class="cls-46">
        <polygon class="cls-16" points="532.44 632.45 875.39 632.45 875.39 390 680.23 390 532.44 500.52 532.44 632.45"/>
      </g>
    </g>
  </g>
  <g>
    <path class="cls-2" d="M438.33,495.33l-11.59-26.62v21.14c0,1.94.2,3.16.6,3.64.55.65,1.41.98,2.59.98h1.06v.86h-10.44v-.86h1.06c1.27,0,2.17-.4,2.7-1.21.32-.5.49-1.63.49-3.41v-20.67c0-1.4-.15-2.41-.44-3.03-.21-.45-.59-.83-1.14-1.13s-1.44-.45-2.66-.45v-.86h8.49l10.88,24.75,10.7-24.75h8.49v.86h-1.04c-1.28,0-2.19.4-2.72,1.21-.32.5-.49,1.63-.49,3.41v20.67c0,1.94.21,3.16.62,3.64.55.65,1.41.98,2.59.98h1.04v.86h-12.74v-.86h1.06c1.28,0,2.18-.4,2.7-1.21.32-.5.49-1.63.49-3.41v-21.14l-11.57,26.62h-.73Z"/>
    <path class="cls-2" d="M481.79,484.74h-11.61l-2.03,4.99c-.5,1.23-.75,2.15-.75,2.75,0,.48.22.91.65,1.27.43.37,1.37.6,2.82.71v.86h-9.44v-.86c1.25-.23,2.06-.54,2.43-.91.75-.75,1.58-2.26,2.5-4.55l10.55-26.03h.77l10.44,26.31c.84,2.12,1.6,3.49,2.29,4.12s1.64.98,2.86,1.06v.86h-11.83v-.86c1.19-.06,2-.27,2.42-.63.42-.36.63-.79.63-1.31,0-.68-.3-1.76-.88-3.24l-1.81-4.55ZM481.17,483.01l-5.09-12.78-5.22,12.78h10.3Z"/>
    <path class="cls-2" d="M518.57,462.97l.77,9.98h-.77c-.78-2.49-1.79-4.36-3.03-5.62-1.78-1.82-4.08-2.73-6.88-2.73-3.82,0-6.72,1.59-8.71,4.78-1.67,2.69-2.5,5.89-2.5,9.61,0,3.02.55,5.77,1.66,8.26,1.11,2.49,2.55,4.31,4.35,5.47,1.79,1.16,3.63,1.74,5.52,1.74,1.11,0,2.17-.15,3.21-.44,1.03-.3,2.03-.73,2.99-1.31v-9.14c0-1.59-.11-2.62-.34-3.11-.23-.49-.58-.86-1.06-1.12-.48-.26-1.32-.38-2.53-.38v-.89h11.61v.89h-.55c-1.15,0-1.94.4-2.37,1.21-.3.58-.44,1.71-.44,3.41v9.68c-1.7.96-3.37,1.67-5.02,2.12-1.65.45-3.49.68-5.51.68-5.79,0-10.19-1.96-13.2-5.88-2.26-2.94-3.38-6.33-3.38-10.17,0-2.78.63-5.45,1.9-8,1.5-3.03,3.57-5.37,6.19-7,2.2-1.35,4.79-2.03,7.78-2.03,1.09,0,2.08.09,2.97.28.89.19,2.16.6,3.79,1.24.83.33,1.38.49,1.66.49s.52-.14.72-.41c.2-.27.32-.8.36-1.6h.82Z"/>
    <path class="cls-2" d="M537.45,494.47v.86h-12.85v-.86h1.06c1.24,0,2.14-.38,2.7-1.14.35-.5.53-1.69.53-3.59v-20.44c0-1.6-.1-2.66-.29-3.17-.15-.39-.45-.72-.91-1-.65-.37-1.33-.56-2.03-.56h-1.06v-.86h12.85v.86h-1.08c-1.22,0-2.12.38-2.68,1.14-.37.5-.55,1.7-.55,3.59v20.44c0,1.6.1,2.66.29,3.17.15.39.46.72.93,1,.63.37,1.3.56,2.01.56h1.08Z"/>
  </g>
  <g>
    <path class="cls-15" d="M152.13,542.46c-4.86,0-8.74-1.6-11.64-4.79s-4.35-7.52-4.35-12.97,1.45-9.78,4.35-12.97,6.78-4.79,11.64-4.79c3.73,0,6.91,1.01,9.54,3.02s4.1,4.67,4.43,7.97h-4.69c-.19-2.17-1.13-3.9-2.82-5.18s-3.83-1.92-6.41-1.92c-3.48,0-6.24,1.2-8.27,3.6s-3.05,5.82-3.05,10.28,1.01,7.86,3.02,10.27,4.75,3.61,8.2,3.61c2.69,0,4.86-.66,6.52-1.97s2.59-3.19,2.81-5.62h4.69c-.33,3.66-1.77,6.48-4.31,8.48s-5.77,3-9.66,3Z"/>
    <path class="cls-15" d="M200.63,541.88h-5.13l-3.98-10.45h-14.39l-3.8,10.45h-4.8l13.2-34.36h4.9l14.02,34.36ZM190.17,527.81l-6.05-15.94-5.77,15.94h11.81Z"/>
    <path class="cls-15" d="M217.38,542.46c-4.84,0-8.46-1.09-10.86-3.26s-3.66-4.96-3.79-8.37h4.38c.23,2.56,1.3,4.46,3.2,5.68s4.19,1.84,6.88,1.84c2.55,0,4.6-.52,6.15-1.57s2.33-2.47,2.33-4.27c0-1.89-.8-3.27-2.41-4.12s-4.38-1.71-8.31-2.54-6.75-2-8.46-3.48-2.57-3.46-2.57-5.93c0-2.78,1.11-5.06,3.34-6.84s5.18-2.67,8.87-2.67c3.88,0,7,.9,9.38,2.7s3.63,4.34,3.77,7.62h-4.43c-.45-4.16-3.3-6.23-8.53-6.23-2.53,0-4.49.48-5.88,1.43s-2.09,2.22-2.09,3.8c0,1.44.56,2.52,1.68,3.23s3.2,1.41,6.26,2.09,5.48,1.34,7.28,1.99,3.34,1.68,4.62,3.06,1.92,3.24,1.92,5.57c0,2.95-1.18,5.41-3.53,7.36s-5.42,2.93-9.2,2.93Z"/>
    <path class="cls-15" d="M236.44,507.52h12.82c2.81,0,5.17.26,7.07.79s3.4,1.66,4.51,3.4,1.66,3.69,1.66,5.85c0,3.47-1.1,6.1-3.3,7.9s-5.39,2.7-9.56,2.7h-8.65v13.73h-4.55v-34.36ZM240.98,524.06h8.7c2.92,0,5-.55,6.25-1.64s1.86-2.67,1.86-4.73c0-1.38-.34-2.59-1.03-3.66s-1.56-1.73-2.61-2.02-2.57-.42-4.56-.42h-8.6v12.47Z"/>
    <path class="cls-15" d="M294.07,541.88h-25.62v-34.36h24.82v4.08h-20.27v10.5h18.96v4.08h-18.96v11.62h21.07v4.08Z"/>
    <path class="cls-15" d="M329.11,541.88h-4.92l-3.23-9.16c-.58-1.62-1.54-2.95-2.88-3.98s-2.89-1.55-4.64-1.55h-8.41v14.7h-4.55v-34.36h15.21c2.66,0,4.83.26,6.52.77s3.06,1.6,4.12,3.26,1.59,3.52,1.59,5.6c0,2.38-.69,4.36-2.06,5.95s-3.26,2.63-5.65,3.12v.09c2.39.77,4.21,2.84,5.46,6.21l3.45,9.35ZM305.02,523.1h10.15c2.83,0,4.88-.45,6.15-1.34s1.91-2.43,1.91-4.62c0-3.91-2.45-5.86-7.36-5.86h-10.85v11.81Z"/>
    <path class="cls-15" d="M347.18,524.7c0,2.16-1.78,3.89-3.94,3.89s-3.89-1.73-3.89-3.89,1.73-3.89,3.89-3.89,3.94,1.82,3.94,3.89Z"/>
    <path class="cls-15" d="M373.38,523.01c2.09.55,3.71,1.61,4.84,3.19s1.7,3.43,1.7,5.55c0,3.17-1.09,5.75-3.26,7.73s-4.87,2.98-8.09,2.98-5.87-.88-7.9-2.65-3.12-4.1-3.28-7.01h4.57c0,1.69.57,3.14,1.71,4.36s2.77,1.83,4.9,1.83,3.71-.66,4.93-1.99,1.84-3.05,1.84-5.16-.64-3.82-1.91-4.98-3.13-1.75-5.57-1.75h-1.69v-3.45h1.01c4.28,0,6.42-1.97,6.42-5.91,0-1.73-.47-3.06-1.41-3.98s-2.26-1.38-3.96-1.38c-3.5,0-5.45,1.82-5.86,5.46h-4.55c.33-2.91,1.44-5.12,3.33-6.64s4.22-2.29,6.98-2.29c3.06,0,5.5.83,7.31,2.5s2.72,3.81,2.72,6.43c0,1.47-.39,2.86-1.18,4.16s-2,2.3-3.62,2.99Z"/>
  </g>
  <g>
    <path class="cls-15" d="M589.16,543.7h-4.31v-29.23l-9.8,29.23h-4.08l-9.8-29.23v29.23h-4.31v-34.36h6.82l9.3,28.64,9.35-28.64h6.82v34.36Z"/>
    <path class="cls-15" d="M622.47,543.7h-25.62v-34.36h24.82v4.08h-20.27v10.5h18.96v4.08h-18.96v11.62h21.07v4.08Z"/>
    <path class="cls-15" d="M650.12,543.7h-21.26v-34.36h4.55v30.28h16.71v4.08Z"/>
    <path class="cls-15" d="M669.95,544.28c-4.86,0-8.74-1.6-11.64-4.79s-4.35-7.52-4.35-12.97,1.45-9.78,4.35-12.97,6.78-4.79,11.64-4.79c3.73,0,6.91,1.01,9.54,3.02s4.1,4.67,4.43,7.97h-4.69c-.19-2.17-1.13-3.9-2.82-5.18s-3.83-1.92-6.41-1.92c-3.48,0-6.24,1.2-8.27,3.6s-3.05,5.82-3.05,10.28,1.01,7.86,3.02,10.27,4.75,3.61,8.2,3.61c2.69,0,4.86-.66,6.52-1.97s2.59-3.19,2.81-5.62h4.69c-.33,3.66-1.77,6.48-4.31,8.48s-5.77,3-9.66,3Z"/>
    <path class="cls-15" d="M717.2,543.7h-4.57v-16.17h-17.86v16.17h-4.55v-34.36h4.55v14.11h17.86v-14.11h4.57v34.36Z"/>
    <path class="cls-15" d="M730.02,543.7h-4.57v-34.36h4.57v34.36Z"/>
    <path class="cls-15" d="M753.11,508.75c4.81,0,8.75,1.62,11.81,4.88s4.59,7.55,4.59,12.89-1.53,9.64-4.59,12.89-7,4.88-11.81,4.88-8.78-1.63-11.86-4.89-4.62-7.55-4.62-12.88,1.54-9.64,4.62-12.89,7.03-4.88,11.86-4.88ZM753.06,540.39c3.44,0,6.25-1.22,8.45-3.66s3.29-5.84,3.29-10.22-1.09-7.78-3.28-10.22-4.98-3.66-8.37-3.66-6.29,1.22-8.5,3.66-3.32,5.84-3.32,10.22,1.1,7.76,3.3,10.21,5.01,3.67,8.41,3.67Z"/>
    <path class="cls-15" d="M804.2,543.7h-4.92l-3.23-9.16c-.58-1.62-1.54-2.95-2.88-3.98s-2.89-1.55-4.64-1.55h-8.41v14.7h-4.55v-34.36h15.21c2.66,0,4.83.26,6.52.77s3.06,1.6,4.12,3.26,1.59,3.52,1.59,5.6c0,2.38-.69,4.36-2.06,5.95s-3.26,2.63-5.65,3.12v.09c2.39.77,4.21,2.84,5.46,6.21l3.45,9.35ZM780.11,524.92h10.15c2.83,0,4.88-.45,6.15-1.34s1.91-2.43,1.91-4.62c0-3.91-2.45-5.86-7.36-5.86h-10.85v11.81Z"/>
    <path class="cls-15" d="M822.27,526.52c0,2.16-1.78,3.89-3.94,3.89s-3.89-1.73-3.89-3.89,1.73-3.89,3.89-3.89,3.94,1.82,3.94,3.89Z"/>
    <path class="cls-15" d="M848.38,543.7h-4.41v-27.02c-1.78,1.19-4.54,1.78-8.27,1.78v-3.47c5.39,0,8.48-2.08,9.28-6.23h3.4v34.95Z"/>
  </g>
  <g>
    <path class="cls-15" d="M369.04,313.35c2.79.82,6.09,3.7,6.09,9.22,0,3.26-1.01,5.57-2.37,7.2-1.98,2.4-5.16,3.46-9.62,3.46-2.44,0-4.27-.24-5.47-.38v-35.96c1.63-.43,3.96-.77,6.36-.77,3.65,0,6.05.86,7.8,2.69,1.4,1.49,2.21,3.6,2.21,6.34,0,3.6-1.98,6.72-5.01,8.06v.14ZM364.35,312c3.92,0,6.44-2.78,6.44-6.53v-.05c0-4.32-2.56-6.19-6.6-6.19-1.71,0-2.72.14-3.3.34v12.43h3.45ZM360.89,329.81c.74.19,1.79.24,3.14.24,4.07,0,7.72-1.97,7.72-7.49s-3.84-7.49-7.76-7.49h-3.1v14.74Z"/>
    <path class="cls-15" d="M401.32,332.93h-3.41l-3.18-11.86h-10.28l-3.1,11.86h-3.3l9.78-36.58h3.72l9.78,36.58ZM394.07,317.91l-2.91-10.85c-.62-2.5-1.13-4.8-1.51-6.96h-.12c-.39,2.21-.93,4.51-1.47,6.82l-2.95,10.99h8.96Z"/>
    <path class="cls-15" d="M421.07,332.93h-15.44v-36.58h3.22v33.17h12.22v3.41Z"/>
    <path class="cls-15" d="M442.56,299.76h-8.73v33.17h-3.22v-33.17h-8.69v-3.36h20.64v3.36Z"/>
    <path class="cls-15" d="M466.35,332.93h-3.22v-17.47h-14.12v17.47h-3.22v-36.53h3.22v15.6h14.12v-15.6h3.22v36.53Z"/>
    <path class="cls-15" d="M494.09,332.93h-3.41l-3.18-11.86h-10.28l-3.1,11.86h-3.3l9.78-36.58h3.72l9.78,36.58ZM486.83,317.91l-2.91-10.85c-.62-2.5-1.13-4.8-1.51-6.96h-.12c-.39,2.21-.93,4.51-1.47,6.82l-2.95,10.99h8.96Z"/>
    <path class="cls-15" d="M511.59,300.87c-.85-.67-2.72-1.68-5.2-1.68-4.11,0-5.67,3.12-5.67,5.76,0,3.6,1.78,5.42,5.74,7.49,4.77,2.5,7.22,5.52,7.22,10.75,0,5.81-3.41,10.27-9.78,10.27-2.68,0-5.59-1.01-7.06-2.3l.89-3.31c1.59,1.3,3.96,2.26,6.36,2.26,3.96,0,6.29-2.64,6.29-6.58,0-3.6-1.59-5.81-5.43-7.73-4.46-2.06-7.49-5.28-7.49-10.32,0-5.57,3.65-9.65,9.04-9.65,2.79,0,4.93.86,6.05,1.73l-.97,3.31Z"/>
    <path class="cls-15" d="M539.99,332.93h-3.41l-3.18-11.86h-10.28l-3.1,11.86h-3.3l9.78-36.58h3.72l9.78,36.58ZM532.73,317.91l-2.91-10.85c-.62-2.5-1.13-4.8-1.51-6.96h-.12c-.39,2.21-.93,4.51-1.47,6.82l-2.95,10.99h8.96Z"/>
    <path class="cls-15" d="M555.81,315.41c2.29.91,3.65,3.65,4.35,7.63.93,5.28,1.59,8.5,2.17,9.89h-3.34c-.47-1.06-1.13-4.27-1.9-8.83-.85-5.09-2.48-7.34-5.98-7.34h-3.61v16.18h-3.22v-36.05c1.82-.48,4.38-.77,6.71-.77,3.84,0,6.36.96,8.11,2.98,1.4,1.58,2.21,4.08,2.21,6.82,0,4.85-2.37,7.97-5.51,9.36v.14ZM551.31,313.68c4.11,0,6.75-2.88,6.75-7.3,0-5.42-3.3-7.11-6.91-7.11-1.75,0-2.99.19-3.65.38v14.02h3.8Z"/>
    <path class="cls-15" d="M576.18,314.69c0,2.16-1.44,3.89-3.18,3.89s-3.14-1.73-3.14-3.89,1.4-3.89,3.14-3.89,3.18,1.82,3.18,3.89Z"/>
    <path class="cls-15" d="M602.33,331.87h-18.4c0-2.09.52-4.09,1.57-6s2.97-4.25,5.77-7.04,4.71-5.02,5.75-6.68,1.55-3.55,1.55-5.66c0-1.89-.44-3.38-1.33-4.46s-2.13-1.63-3.73-1.63c-1.39,0-2.58.55-3.56,1.64-.99,1.09-1.54,2.7-1.67,4.83h-3.69c.2-3.02,1.1-5.43,2.7-7.23s3.7-2.71,6.3-2.71c2.77,0,4.9.92,6.4,2.75,1.5,1.84,2.25,4.14,2.25,6.9,0,2.5-.56,4.71-1.67,6.62-1.11,1.91-3.32,4.57-6.62,7.98-3.3,3.41-4.99,5.61-5.05,6.61h13.41v4.08Z"/>
  </g>
  <text class="cls-5" transform="translate(75.42 259.71)"><tspan class="cls-44" x="0" y="0">C</tspan><tspan class="cls-45" x="30.92" y="0">O</tspan><tspan class="cls-56" x="64.83" y="0">D</tspan><tspan x="96.19" y="0">E : </tspan><tspan class="cls-39" x="161.13" y="0">3</tspan><tspan class="cls-49" x="183.99" y="0">7</tspan><tspan x="207.06" y="0">8</tspan></text>
  <text class="cls-6" transform="translate(127.89 289.49)"><tspan class="cls-22" x="0" y="0">F</tspan><tspan class="cls-34" x="12.68" y="0">I</tspan><tspan class="cls-29" x="19.13" y="0">L</tspan><tspan class="cls-10" x="30.98" y="0">E : </tspan><tspan class="cls-9" x="64.5" y="0">M</tspan><tspan class="cls-38" x="82.23" y="0">A</tspan><tspan class="cls-57" x="95.98" y="0">G</tspan><tspan class="cls-50" x="112.52" y="0">I</tspan><tspan class="cls-8" x="119.49" y="0">_</tspan><tspan class="cls-35" x="131.84" y="0">S</tspan><tspan class="cls-40" x="145.48" y="0">Y</tspan><tspan class="cls-10" x="159.19" y="0">S</tspan><tspan class="cls-7" x="0" y="25">E</tspan><tspan class="cls-48" x="14.64" y="25">X</tspan><tspan class="cls-31" x="29.32" y="25">T</tspan><tspan class="cls-27" x="42.37" y="25">E</tspan><tspan class="cls-51" x="56.35" y="25">N</tspan><tspan class="cls-30" x="71.65" y="25">T</tspan><tspan class="cls-42" x="84.6" y="25">I</tspan><tspan class="cls-25" x="91.05" y="25">O</tspan><tspan class="cls-10" x="107.62" y="25">N : </tspan><tspan class="cls-26" x="142.24" y="25">0</tspan><tspan class="cls-55" x="154.19" y="25">2</tspan><tspan class="cls-52" x="165.54" y="25">1</tspan><tspan class="cls-10" x="176.66" y="25">8</tspan><tspan class="cls-7" x="0" y="50">E</tspan><tspan class="cls-53" x="14.64" y="50">X</tspan><tspan class="cls-33" x="29.75" y="50">_</tspan><tspan class="cls-37" x="42.31" y="50">M</tspan><tspan class="cls-47" x="59.94" y="50">O</tspan><tspan class="cls-43" x="76.51" y="50">D</tspan><tspan class="cls-10" x="91.92" y="50">E : </tspan><tspan class="cls-47" x="125.44" y="50">O</tspan><tspan class="cls-54" x="142.01" y="50">F</tspan><tspan class="cls-10" x="154.8" y="50">F</tspan><tspan class="cls-14" x="0" y="75">P</tspan><tspan class="cls-23" x="13.97" y="75">R</tspan><tspan class="cls-42" x="29.14" y="75">I</tspan><tspan class="cls-47" x="35.6" y="75">O</tspan><tspan class="cls-23" x="52.16" y="75">R</tspan><tspan class="cls-11" x="67.34" y="75">I</tspan><tspan class="cls-21" x="73.65" y="75">T</tspan><tspan class="cls-10" x="87.48" y="75">Y : </tspan><tspan class="cls-32" x="121" y="75">AA</tspan><tspan class="cls-10" x="151.47" y="75">A</tspan></text>
  <text class="cls-1" transform="translate(706.89 342.17) scale(.9 1)"><tspan class="cls-12" x="0" y="0">審</tspan><tspan class="cls-13" x="56.68" y="0">議</tspan><tspan class="cls-36" x="111.57" y="0">中</tspan></text>
  <rect class="cls-20" x="690.74" y="287.61" width="180" height="72.39"/>
  <rect class="cls-20" x="696.12" y="291.85" width="169.23" height="63.92"/>
</svg>